<?xml version="1.0" encoding="UTF-8" standalone="no"?><!DOCTYPE svg PUBLIC "-//W3C//DTD SVG 1.1//EN" "http://www.w3.org/Graphics/SVG/1.1/DTD/svg11.dtd"><svg width="100%" height="100%" viewBox="0 0 512 512" version="1.1" xmlns="http://www.w3.org/2000/svg" xmlns:xlink="http://www.w3.org/1999/xlink" xml:space="preserve" xmlns:serif="http://www.serif.com/" style="fill-rule:evenodd;clip-rule:evenodd;stroke-linejoin:round;stroke-miterlimit:1.41421;"><g><path d="M264.067,29.898l133.542,0c36.292,0 65.738,29.555 65.738,65.738l0,321.848c0,36.292 -29.555,65.738 -65.738,65.738l-135.715,0c-8.15,0 -14.669,6.52 -14.669,14.669c0,8.15 6.519,14.669 14.669,14.669l135.715,0c52.482,0 95.076,-42.703 95.076,-95.076l0,-321.848c0,-52.482 -42.703,-95.076 -95.076,-95.076l-133.542,0c-8.149,0 -14.669,6.52 -14.669,14.669c0,8.149 6.628,14.669 14.669,14.669Z" style="fill:#d80027;fill-rule:nonzero;"/><path d="M22.41,266.883l93.229,93.229c5.759,5.759 14.995,5.759 20.754,0c5.759,-5.759 5.759,-14.995 0,-20.754l-68.238,-68.238l297.617,0c8.149,0 14.669,-6.519 14.669,-14.669c0,-8.149 -6.52,-14.669 -14.669,-14.669l-297.617,0l68.238,-68.237c5.759,-5.759 5.759,-14.995 0,-20.754c-2.825,-2.825 -6.628,-4.346 -10.323,-4.346c-3.694,0 -7.497,1.412 -10.322,4.346l-93.229,93.229c-5.868,5.868 -5.868,15.212 -0.109,20.863Z" style="fill:#d80027;fill-rule:nonzero;"/></g></svg>