<?xml version="1.0" encoding="UTF-8"?>
<svg width="274px" height="321px" viewBox="0 0 274 321" version="1.1" xmlns="http://www.w3.org/2000/svg" xmlns:xlink="http://www.w3.org/1999/xlink">
    <!-- Generator: Sketch 52.5 (67469) - http://www.bohemiancoding.com/sketch -->
    <title>Untitled</title>
    <desc>Created with Sketch.</desc>
    <defs>
        <polygon id="path-1" points="4.26811564e-16 0.597020349 69 0.597020349 69 36.5970203 4.26811564e-16 36.5970203"></polygon>
        <polygon id="path-3" points="4.26811564e-16 0.597020349 69 0.597020349 69 36.5970203 4.26811564e-16 36.5970203"></polygon>
        <path d="M57.9986478,19.1509904 C50.9142055,6.65935425 42.9937573,0.325679731 34.4578538,0.325679731 C25.9219503,0.325679731 18.0015022,6.65935425 10.9170599,19.1509904 C7.17018375,25.7569949 3.52613184,34.2477832 0.0435189756,44.47868 L68.8721887,44.47868 C65.3895758,34.2477832 61.7455239,25.7569949 57.9986478,19.1509904 Z" id="path-5"></path>
        <path d="M57.9986478,19.1509904 C50.9142055,6.65935425 42.9937573,0.325679731 34.4578538,0.325679731 C25.9219503,0.325679731 18.0015022,6.65935425 10.9170599,19.1509904 C7.17018375,25.7569949 3.52613184,34.2477832 0.0435189756,44.47868 L68.8721887,44.47868 C65.3895758,34.2477832 61.7455239,25.7569949 57.9986478,19.1509904 Z" id="path-7"></path>
    </defs>
    <g id="Page-1" stroke="none" stroke-width="1" fill="none" fill-rule="evenodd">
        <g id="Glyph">
            <g id="monkey" transform="translate(0.000000, 70.000000)">
                <path d="M146.034823,87.8644697 C145.873974,86.7748773 145.715213,85.8234764 145.554364,84.7338839 L144.430508,76.1624203 L134.804622,79.0201652 C93.0924499,91.4007742 65.0169492,125.463394 65.0169492,163.018026 L65.0169492,169.821337 L78.4133915,183.42796 L137.211094,183.42796 C141.863188,183.42796 146.356521,184.108291 150.367307,185.468953 L153.254237,186.420353 L153.254237,101.334672 C149.725999,97.3891054 147.317439,92.763208 146.034823,87.8644697 Z" id="Path" fill="#68544F"></path>
                <path d="M193.19322,217.135063 L177.093785,217.135063 C177.093785,208.089845 172.90332,199.568065 165.285437,193.143574 C160.939847,189.475972 155.814441,186.763291 150.46054,185.297312 L144.894915,183.772976 L144.894915,95.8513369 L158.344652,106.123804 C165.696308,111.734845 175.215518,114.82419 185.143503,114.82419 L193.19322,114.82419 L193.19322,217.135063 Z" id="Path" fill="#53433F"></path>
                <path d="M72.4474576,235.214286 L56.4664008,235.214286 C43.248735,235.214286 32.4948156,226.698952 32.4948156,216.232737 L32.4948156,89.2672634 C32.4948156,85.7757787 28.913644,82.9400804 24.5042871,82.9400804 L0,82.9400804 L0,70.2857143 L24.5042871,70.2857143 C37.7219529,70.2857143 48.4758724,78.8010481 48.4758724,89.2672634 L48.4758724,216.232737 C48.4758724,219.724221 52.057044,222.55992 56.4664008,222.55992 L72.4474576,222.55992 L72.4474576,235.214286 Z" id="Path" fill="#53433F"></path>
                <path d="M250.116223,31.5714286 L218.271186,31.5714286 L218.271186,79.8571429 L250.116223,79.8571429 C263.285472,79.8571429 274,69.0263889 274,55.7142857 C274,42.4021825 263.285472,31.5714286 250.116223,31.5714286 Z" id="Path" fill="#3E322E"></path>
                <path d="M234.061017,64.0714286 L234.061017,48.2857143 L250.160452,48.2857143 C254.598278,48.2857143 258.210169,51.827223 258.210169,56.1785714 C258.210169,60.5299199 254.598278,64.0714286 250.160452,64.0714286 L234.061017,64.0714286 Z" id="Path" fill="#EC806B"></path>
                <path d="M121.409201,31.5714286 C108.239952,31.5714286 97.5254237,42.4021825 97.5254237,55.7142857 C97.5254237,69.0263889 108.239952,79.8571429 121.409201,79.8571429 L153.254237,79.8571429 L153.254237,31.5714286 L121.409201,31.5714286 Z" id="Path" fill="#53433F"></path>
                <path d="M121.364972,64.0714286 C116.927146,64.0714286 113.315254,60.5299199 113.315254,56.1785714 C113.315254,51.827223 116.927146,48.2857143 121.364972,48.2857143 L137.464407,48.2857143 L137.464407,64.0714286 L121.364972,64.0714286 Z" id="Path" fill="#F89580"></path>
                <path d="M211.495193,106.151644 C204.237579,111.777891 194.840138,114.875608 185.039152,114.875608 L185.039152,217.463755 L183.905085,224.272703 L185.039152,224.272703 C198.184394,224.272703 208.879389,233.436412 208.879389,244.699547 L224.772881,244.699547 L224.772881,95.8513369 L211.495193,106.151644 Z" id="Path" fill="#3E322E"></path>
                <path d="M185.298305,0 C154.312594,0 129.105085,25.1488697 129.105085,56.0625 L129.105085,60.0669643 L144.999321,61.3475589 C146.284991,53.820417 153.348863,48.0535714 161.215496,48.0535714 C170.04586,48.0535714 177.270702,55.2616071 177.270702,64.0714286 L193.325908,64.0714286 C193.325908,55.2616071 200.550751,48.0535714 209.381114,48.0535714 C217.247747,48.0535714 224.150649,53.4992259 225.59729,60.8678571 L241.491525,59.2660714 C241.491525,21.4635116 213.716855,0 185.298305,0 Z" id="Path" fill="#68544F"></path>
                <path d="M241.491525,59.2660714 L225.728647,60.8678571 C224.293962,53.4992259 217.448108,48.0535714 209.646489,48.0535714 C200.889104,48.0535714 193.723971,55.2616071 193.723971,64.0714286 L185.762712,64.0714286 L185.762712,0 C213.946398,0 241.491525,21.4635116 241.491525,59.2660714 Z" id="Path" fill="#53433F"></path>
                <path d="M209.385888,31.5714286 C199.754197,31.5714286 191.247039,35.7566095 185.30666,42.5153525 C179.366281,35.7566095 170.859123,31.5714286 161.227432,31.5714286 C145.496506,31.5714286 131.84952,43.1587424 129.121795,59.7380952 C129.121795,66.4025298 128.994292,72.081969 129.443687,77.9248763 C131.048969,91.9285714 137.470096,104.643391 147.743482,113.657143 C158.177815,122.991543 171.339872,128.142857 185.30666,128.142857 C199.273448,128.142857 212.435506,122.991543 222.710982,113.818514 C234.589649,103.356609 241.491525,88.0661333 241.491525,71.8095238 L241.491525,58.9333333 C240.04719,44.7703618 226.402294,31.5714286 209.385888,31.5714286 Z" id="Path" fill="#FFBFAB"></path>
                <path d="M241.491525,58.9333333 L241.491525,71.8095238 C241.491525,88.0661333 234.645672,103.356609 222.863423,113.818514 C212.671353,122.991543 199.616132,128.142857 185.762712,128.142857 L185.762712,42.5153525 C191.654873,35.7566095 200.092978,31.5714286 209.646489,31.5714286 C226.524773,31.5714286 240.058913,44.7703618 241.491525,58.9333333 Z" id="Path" fill="#FFA78F"></path>
                <path d="M192.284444,210.592737 C191.327999,204.040977 188.772627,197.898035 184.780508,192.300777 C173.837529,177.332688 156.07468,169.094107 136.875085,169.094107 L65.0169492,169.094107 L65.0169492,251 L224.701695,251 L224.701695,244.174509 C224.701695,227.5196 210.650269,213.731752 192.284444,210.592737 Z" id="Path" fill="#725D57"></path>
                <path d="M224.772881,244.22335 L224.772881,251 L184.833898,251 L184.833898,192.720807 C188.827797,198.278013 191.384307,204.376998 192.341179,210.881877 C210.715191,213.99843 224.772881,227.687617 224.772881,244.22335 Z" id="Path" fill="#68544F"></path>
            </g>
            <g id="mexican-hat" transform="translate(117.750000, 0.000000)">
                <g id="left" transform="translate(34.500000, 70.902980) scale(-1, 1) translate(-34.500000, -70.902980) translate(0.000000, 52.402980)">
                    <mask id="mask-2" fill="white">
                        <use xlink:href="#path-1"></use>
                    </mask>
                    <g id="Clip-2"></g>
                    <path d="M66.75,0.597020349 L-2.32369679e-13,0.597020349 C-1.2429375,0.597020349 -1.86517468e-14,2.61114535 -1.86517468e-14,5.09702035 C-1.87627691e-14,13.4654844 -0.538028876,30.9500792 -5.30686606e-14,36.5970203 C0.578634166,42.6701388 2.38309599,36.5970203 6.88311396,36.5970203 L53.25,36.5970203 C61.93425,36.5970203 69,22.4655203 69,5.09702035 C69,2.61114535 67.9929375,0.597020349 66.75,0.597020349 Z" id="Fill-1" fill="#765C56" mask="url(#mask-2)"></path>
                </g>
                <g id="right" transform="translate(68.000000, 52.402980)">
                    <mask id="mask-4" fill="white">
                        <use xlink:href="#path-3"></use>
                    </mask>
                    <g id="Clip-2"></g>
                    <path d="M66.75,0.597020349 L-2.32369679e-13,0.597020349 C-1.2429375,0.597020349 -1.86517468e-14,2.61114535 -1.86517468e-14,5.09702035 C-1.87627691e-14,13.4654844 -0.538028876,30.9500792 -5.30686606e-14,36.5970203 C0.578634166,42.6701388 2.38309599,36.5970203 6.88311396,36.5970203 L53.25,36.5970203 C61.93425,36.5970203 69,22.4655203 69,5.09702035 C69,2.61114535 67.9929375,0.597020349 66.75,0.597020349 Z" id="Fill-1" fill="#5A413D" mask="url(#mask-4)"></path>
                </g>
                <g id="Group-2" transform="translate(34.000000, 0.000000)">
                    <mask id="mask-6" fill="white">
                        <use xlink:href="#path-5"></use>
                    </mask>
                    <use id="Mask" fill="#56423E" xlink:href="#path-5"></use>
                    <rect id="Mask" fill="#D8D8D8" mask="url(#mask-6)" x="36" y="-7" width="39" height="56"></rect>
                </g>
                <g id="Group" transform="translate(34.000000, 0.000000)">
                    <mask id="mask-8" fill="white">
                        <use xlink:href="#path-7"></use>
                    </mask>
                    <use id="Mask" fill="#56423E" xlink:href="#path-7"></use>
                    <rect id="Mask" fill="#6C534E" mask="url(#mask-8)" x="-3" y="-7" width="37" height="56"></rect>
                </g>
            </g>
        </g>
    </g>
</svg>